<svg width="100" height="100" viewBox="0 0 100 100" fill="none" xmlns="http://www.w3.org/2000/svg">
<g clip-path="url(#clip0_4_262)">
<rect x="58" y="8" width="34" height="34" rx="3" fill="white"/>
<path fill-rule="evenodd" clip-rule="evenodd" d="M5 0C2.23858 0 0 2.23858 0 5V50V95C0 97.7614 2.23858 100 5 100H50H95C97.7614 100 100 97.7614 100 95V55C100 52.2386 97.7614 50 95 50H55C52.2386 50 50 47.7614 50 45V5C50 2.23858 47.7614 0 45 0H5ZM8 11C8 9.34314 9.34315 8 11 8H39C40.6569 8 42 9.34315 42 11V51C42 54.866 45.134 58 49 58H89C90.6569 58 92 59.3431 92 61V89C92 90.6569 90.6569 92 89 92H39H11C9.34315 92 8 90.6569 8 89V61V11Z" fill="white"/>
</g>
<defs>
<clipPath id="clip0_4_262">
<rect width="100" height="100" fill="white"/>
</clipPath>
</defs>
</svg>
