<svg width="644" height="100" viewBox="0 0 644 100" fill="none" xmlns="http://www.w3.org/2000/svg">
<rect x="58" y="8" width="34" height="34" rx="3" fill="#292929"/>
<path fill-rule="evenodd" clip-rule="evenodd" d="M5 0C2.23858 0 0 2.23858 0 5V50V95C0 97.7614 2.23858 100 5 100H50H95C97.7614 100 100 97.7614 100 95V55C100 52.2386 97.7614 50 95 50H55C52.2386 50 50 47.7614 50 45V5C50 2.23858 47.7614 0 45 0H5ZM8 11C8 9.34314 9.34315 8 11 8H39C40.6569 8 42 9.34315 42 11V51C42 54.866 45.134 58 49 58H89C90.6569 58 92 59.3431 92 61V89C92 90.6569 90.6569 92 89 92H39H11C9.34315 92 8 90.6569 8 89V61V11Z" fill="#292929"/>
<path d="M149.04 80.8C147.173 80.8 145.333 80.5333 143.52 80C141.76 79.4133 140.16 78.64 138.72 77.68C137.28 76.72 136.08 75.6533 135.12 74.48C134.16 73.2533 133.52 72.0267 133.2 70.8L135.52 69.76L135.28 79.84H125.76V20.8H135.6V47.6L133.84 46.8C134.107 45.52 134.693 44.32 135.6 43.2C136.56 42.0267 137.733 40.9867 139.12 40.08C140.507 39.12 142.027 38.3733 143.68 37.84C145.333 37.2533 147.013 36.96 148.72 36.96C152.507 36.96 155.84 37.8933 158.72 39.76C161.653 41.6267 163.947 44.2133 165.6 47.52C167.307 50.8267 168.16 54.5867 168.16 58.8C168.16 63.0667 167.333 66.8533 165.68 70.16C164.027 73.4667 161.733 76.08 158.8 78C155.92 79.8667 152.667 80.8 149.04 80.8ZM146.96 72.16C149.2 72.16 151.2 71.6 152.96 70.48C154.72 69.3067 156.107 67.7333 157.12 65.76C158.133 63.7333 158.64 61.4133 158.64 58.8C158.64 56.24 158.133 53.9733 157.12 52C156.16 50.0267 154.8 48.48 153.04 47.36C151.28 46.24 149.253 45.68 146.96 45.68C144.667 45.68 142.64 46.24 140.88 47.36C139.12 48.48 137.733 50.0267 136.72 52C135.707 53.9733 135.2 56.24 135.2 58.8C135.2 61.4133 135.707 63.7333 136.72 65.76C137.733 67.7333 139.12 69.3067 140.88 70.48C142.64 71.6 144.667 72.16 146.96 72.16Z" fill="#292929"/>
<path d="M176.932 80V37.84H186.612L186.772 51.28L185.412 48.24C185.999 46.1067 187.012 44.1867 188.452 42.48C189.892 40.7733 191.545 39.44 193.412 38.48C195.332 37.4667 197.332 36.96 199.412 36.96C200.319 36.96 201.172 37.04 201.972 37.2C202.825 37.36 203.519 37.5467 204.052 37.76L201.412 48.56C200.825 48.24 200.105 47.9733 199.252 47.76C198.399 47.5467 197.545 47.44 196.692 47.44C195.359 47.44 194.079 47.7067 192.852 48.24C191.679 48.72 190.639 49.4133 189.732 50.32C188.825 51.2267 188.105 52.2933 187.572 53.52C187.092 54.6933 186.852 56.0267 186.852 57.52V80H176.932Z" fill="#292929"/>
<path d="M228.567 80.8C224.14 80.8 220.22 79.8667 216.807 78C213.447 76.1333 210.807 73.6 208.887 70.4C207.02 67.1467 206.087 63.44 206.087 59.28C206.087 55.9733 206.62 52.96 207.687 50.24C208.754 47.52 210.22 45.1733 212.087 43.2C214.007 41.1733 216.274 39.6267 218.887 38.56C221.554 37.44 224.46 36.88 227.607 36.88C230.38 36.88 232.967 37.4133 235.367 38.48C237.767 39.5467 239.847 41.0133 241.607 42.88C243.367 44.6933 244.7 46.88 245.607 49.44C246.567 51.9467 247.02 54.6933 246.967 57.68L246.887 61.12H212.727L210.887 54.4H238.647L237.367 55.76V54C237.207 52.3467 236.674 50.9067 235.767 49.68C234.86 48.4 233.687 47.4133 232.247 46.72C230.86 45.9733 229.314 45.6 227.607 45.6C224.994 45.6 222.78 46.1067 220.967 47.12C219.207 48.1333 217.874 49.6 216.967 51.52C216.06 53.3867 215.607 55.7333 215.607 58.56C215.607 61.28 216.167 63.6533 217.287 65.68C218.46 67.7067 220.087 69.28 222.167 70.4C224.3 71.4667 226.78 72 229.607 72C231.58 72 233.394 71.68 235.047 71.04C236.7 70.4 238.487 69.2533 240.407 67.6L245.287 74.4C243.847 75.7333 242.194 76.88 240.327 77.84C238.514 78.7467 236.594 79.4667 234.567 80C232.54 80.5333 230.54 80.8 228.567 80.8Z" fill="#292929"/>
<path d="M271.602 80.8C268.135 80.8 264.989 79.84 262.162 77.92C259.335 76 257.069 73.3867 255.362 70.08C253.655 66.7733 252.802 63.0133 252.802 58.8C252.802 54.5867 253.655 50.8267 255.362 47.52C257.069 44.2133 259.389 41.6267 262.322 39.76C265.255 37.8933 268.562 36.96 272.242 36.96C274.375 36.96 276.322 37.28 278.082 37.92C279.842 38.5067 281.389 39.36 282.722 40.48C284.055 41.6 285.149 42.88 286.002 44.32C286.909 45.76 287.522 47.3067 287.842 48.96L285.682 48.4V37.84H295.602V80H285.602V69.92L287.922 69.52C287.549 70.96 286.855 72.3733 285.842 73.76C284.882 75.0933 283.655 76.2933 282.162 77.36C280.722 78.3733 279.095 79.2 277.282 79.84C275.522 80.48 273.629 80.8 271.602 80.8ZM274.322 72.08C276.615 72.08 278.642 71.52 280.402 70.4C282.162 69.28 283.522 67.7333 284.482 65.76C285.495 63.7333 286.002 61.4133 286.002 58.8C286.002 56.24 285.495 53.9733 284.482 52C283.522 50.0267 282.162 48.48 280.402 47.36C278.642 46.24 276.615 45.68 274.322 45.68C272.029 45.68 270.002 46.24 268.242 47.36C266.535 48.48 265.202 50.0267 264.242 52C263.282 53.9733 262.802 56.24 262.802 58.8C262.802 61.4133 263.282 63.7333 264.242 65.76C265.202 67.7333 266.535 69.28 268.242 70.4C270.002 71.52 272.029 72.08 274.322 72.08Z" fill="#292929"/>
<path d="M323.97 80.8C320.237 80.8 316.877 79.8667 313.89 78C310.957 76.08 308.61 73.4933 306.85 70.24C305.143 66.9333 304.29 63.1467 304.29 58.88C304.29 54.6667 305.143 50.9067 306.85 47.6C308.557 44.2933 310.877 41.7067 313.81 39.84C316.797 37.92 320.157 36.96 323.89 36.96C325.917 36.96 327.863 37.28 329.73 37.92C331.65 38.56 333.357 39.44 334.85 40.56C336.343 41.6267 337.517 42.8267 338.37 44.16C339.277 45.4933 339.783 46.88 339.89 48.32L337.25 48.64V20.8H347.09V80H337.57L337.33 70.08L339.25 70.24C339.197 71.5733 338.717 72.8533 337.81 74.08C336.957 75.3067 335.837 76.4267 334.45 77.44C333.063 78.4533 331.437 79.28 329.57 79.92C327.757 80.5067 325.89 80.8 323.97 80.8ZM325.89 72.48C328.183 72.48 330.21 71.8933 331.97 70.72C333.73 69.5467 335.09 67.9467 336.05 65.92C337.063 63.8933 337.57 61.5467 337.57 58.88C337.57 56.2667 337.063 53.9467 336.05 51.92C335.09 49.84 333.73 48.24 331.97 47.12C330.21 45.9467 328.183 45.36 325.89 45.36C323.597 45.36 321.57 45.9467 319.81 47.12C318.05 48.24 316.663 49.84 315.65 51.92C314.69 53.9467 314.21 56.2667 314.21 58.88C314.21 61.5467 314.69 63.8933 315.65 65.92C316.663 67.9467 318.05 69.5467 319.81 70.72C321.57 71.8933 323.597 72.48 325.89 72.48Z" fill="#292929"/>
<path d="M376.34 80.8C372.393 80.8 368.847 79.84 365.7 77.92C362.553 76 360.073 73.3867 358.26 70.08C356.447 66.7733 355.54 63.04 355.54 58.88C355.54 54.72 356.447 50.9867 358.26 47.68C360.073 44.3733 362.553 41.76 365.7 39.84C368.847 37.92 372.393 36.96 376.34 36.96C380.127 36.96 383.567 37.68 386.66 39.12C389.753 40.56 392.153 42.56 393.86 45.12L388.42 51.68C387.62 50.56 386.607 49.5467 385.38 48.64C384.153 47.7333 382.847 47.0133 381.46 46.48C380.073 45.9467 378.687 45.68 377.3 45.68C374.953 45.68 372.847 46.2667 370.98 47.44C369.167 48.56 367.727 50.1333 366.66 52.16C365.593 54.1333 365.06 56.3733 365.06 58.88C365.06 61.3867 365.593 63.6267 366.66 65.6C367.78 67.5733 369.273 69.1467 371.14 70.32C373.007 71.4933 375.087 72.08 377.38 72.08C378.767 72.08 380.1 71.8667 381.38 71.44C382.713 70.96 383.967 70.2933 385.14 69.44C386.313 68.5867 387.407 67.52 388.42 66.24L393.86 72.88C392.047 75.2267 389.54 77.1467 386.34 78.64C383.193 80.08 379.86 80.8 376.34 80.8Z" fill="#292929"/>
<path d="M401.385 80V37.84H411.065L411.225 51.28L409.865 48.24C410.452 46.1067 411.465 44.1867 412.905 42.48C414.345 40.7733 415.998 39.44 417.865 38.48C419.785 37.4667 421.785 36.96 423.865 36.96C424.772 36.96 425.625 37.04 426.425 37.2C427.278 37.36 427.972 37.5467 428.505 37.76L425.865 48.56C425.278 48.24 424.558 47.9733 423.705 47.76C422.852 47.5467 421.998 47.44 421.145 47.44C419.812 47.44 418.532 47.7067 417.305 48.24C416.132 48.72 415.092 49.4133 414.185 50.32C413.278 51.2267 412.558 52.2933 412.025 53.52C411.545 54.6933 411.305 56.0267 411.305 57.52V80H401.385Z" fill="#292929"/>
<path d="M449.697 80.8C446.657 80.8 444.017 80.1333 441.777 78.8C439.537 77.4133 437.83 75.4667 436.657 72.96C435.484 70.4 434.897 67.36 434.897 63.84V37.84H444.737V61.76C444.737 64 445.084 65.92 445.777 67.52C446.47 69.0667 447.484 70.2667 448.817 71.12C450.15 71.9733 451.75 72.4 453.617 72.4C455.004 72.4 456.257 72.1867 457.377 71.76C458.55 71.28 459.564 70.64 460.417 69.84C461.27 68.9867 461.937 68 462.417 66.88C462.897 65.7067 463.137 64.4533 463.137 63.12V37.84H472.977V80H463.377L463.217 71.2L464.977 70.24C464.337 72.2667 463.244 74.08 461.697 75.68C460.204 77.2267 458.417 78.48 456.337 79.44C454.257 80.3467 452.044 80.8 449.697 80.8Z" fill="#292929"/>
<path d="M484.35 80V37.84H494.03L494.19 46.32L492.59 46.96C493.07 45.5733 493.79 44.2933 494.75 43.12C495.71 41.8933 496.857 40.8533 498.19 40C499.523 39.0933 500.937 38.4 502.43 37.92C503.923 37.3867 505.443 37.12 506.99 37.12C509.283 37.12 511.31 37.4933 513.07 38.24C514.883 38.9333 516.377 40.0533 517.55 41.6C518.777 43.1467 519.683 45.12 520.27 47.52L518.75 47.2L519.39 45.92C519.977 44.64 520.803 43.4933 521.87 42.48C522.937 41.4133 524.137 40.48 525.47 39.68C526.803 38.8267 528.19 38.1867 529.63 37.76C531.123 37.3333 532.59 37.12 534.03 37.12C537.23 37.12 539.897 37.76 542.03 39.04C544.163 40.32 545.763 42.2667 546.83 44.88C547.897 47.4933 548.43 50.72 548.43 54.56V80H538.51V55.2C538.51 53.0667 538.217 51.3067 537.63 49.92C537.097 48.5333 536.243 47.52 535.07 46.88C533.95 46.1867 532.537 45.84 530.83 45.84C529.497 45.84 528.217 46.08 526.99 46.56C525.817 46.9867 524.803 47.6267 523.95 48.48C523.097 49.28 522.43 50.2133 521.95 51.28C521.47 52.3467 521.23 53.52 521.23 54.8V80H511.31V55.12C511.31 53.0933 511.017 51.4133 510.43 50.08C509.843 48.6933 508.99 47.6533 507.87 46.96C506.75 46.2133 505.39 45.84 503.79 45.84C502.457 45.84 501.203 46.08 500.03 46.56C498.857 46.9867 497.843 47.6 496.99 48.4C496.137 49.2 495.47 50.1333 494.99 51.2C494.51 52.2667 494.27 53.44 494.27 54.72V80H484.35Z" fill="#292929"/>
<path d="M582.634 80.8C580.767 80.8 578.927 80.5333 577.114 80C575.354 79.4133 573.754 78.64 572.314 77.68C570.874 76.72 569.674 75.6533 568.714 74.48C567.754 73.2533 567.114 72.0267 566.794 70.8L569.114 69.76L568.874 79.84H559.354V20.8H569.194V47.6L567.434 46.8C567.7 45.52 568.287 44.32 569.194 43.2C570.154 42.0267 571.327 40.9867 572.714 40.08C574.1 39.12 575.62 38.3733 577.274 37.84C578.927 37.2533 580.607 36.96 582.314 36.96C586.1 36.96 589.434 37.8933 592.314 39.76C595.247 41.6267 597.54 44.2133 599.194 47.52C600.9 50.8267 601.754 54.5867 601.754 58.8C601.754 63.0667 600.927 66.8533 599.274 70.16C597.62 73.4667 595.327 76.08 592.394 78C589.514 79.8667 586.26 80.8 582.634 80.8ZM580.554 72.16C582.794 72.16 584.794 71.6 586.554 70.48C588.314 69.3067 589.7 67.7333 590.714 65.76C591.727 63.7333 592.234 61.4133 592.234 58.8C592.234 56.24 591.727 53.9733 590.714 52C589.754 50.0267 588.394 48.48 586.634 47.36C584.874 46.24 582.847 45.68 580.554 45.68C578.26 45.68 576.234 46.24 574.474 47.36C572.714 48.48 571.327 50.0267 570.314 52C569.3 53.9733 568.794 56.24 568.794 58.8C568.794 61.4133 569.3 63.7333 570.314 65.76C571.327 67.7333 572.714 69.3067 574.474 70.48C576.234 71.6 578.26 72.16 580.554 72.16Z" fill="#292929"/>
<path d="M624.606 80.8C620.872 80.8 617.512 80.1867 614.526 78.96C611.592 77.68 609.192 75.8667 607.326 73.52L613.726 68C615.326 69.8133 617.112 71.12 619.086 71.92C621.059 72.72 623.139 73.12 625.326 73.12C626.232 73.12 627.032 73.0133 627.726 72.8C628.472 72.5867 629.112 72.2667 629.646 71.84C630.179 71.4133 630.579 70.9333 630.846 70.4C631.166 69.8133 631.326 69.1733 631.326 68.48C631.326 67.2 630.846 66.1867 629.886 65.44C629.352 65.0667 628.499 64.6667 627.326 64.24C626.206 63.8133 624.739 63.3867 622.926 62.96C620.046 62.2133 617.646 61.36 615.726 60.4C613.806 59.3867 612.312 58.2667 611.246 57.04C610.339 56.0267 609.646 54.88 609.166 53.6C608.739 52.32 608.526 50.9333 608.526 49.44C608.526 47.5733 608.926 45.8933 609.726 44.4C610.579 42.8533 611.726 41.52 613.166 40.4C614.606 39.28 616.286 38.4267 618.206 37.84C620.126 37.2533 622.126 36.96 624.206 36.96C626.339 36.96 628.392 37.2267 630.366 37.76C632.392 38.2933 634.259 39.0667 635.966 40.08C637.726 41.04 639.219 42.2133 640.446 43.6L635.006 49.6C633.992 48.64 632.872 47.7867 631.646 47.04C630.472 46.2933 629.272 45.7067 628.046 45.28C626.819 44.8 625.672 44.56 624.606 44.56C623.592 44.56 622.686 44.6667 621.886 44.88C621.086 45.04 620.419 45.3067 619.886 45.68C619.352 46.0533 618.926 46.5333 618.606 47.12C618.339 47.6533 618.206 48.2933 618.206 49.04C618.259 49.68 618.419 50.2933 618.686 50.88C619.006 51.4133 619.432 51.8667 619.966 52.24C620.552 52.6133 621.432 53.04 622.606 53.52C623.779 54 625.299 54.4533 627.166 54.88C629.779 55.5733 631.966 56.3467 633.726 57.2C635.486 58.0533 636.872 59.04 637.886 60.16C638.899 61.12 639.619 62.24 640.046 63.52C640.472 64.8 640.686 66.2133 640.686 67.76C640.686 70.2667 639.966 72.5067 638.526 74.48C637.139 76.4533 635.219 78 632.766 79.12C630.366 80.24 627.646 80.8 624.606 80.8Z" fill="#292929"/>
</svg>
